<?xml version="1.0" encoding="iso-8859-1"?>
<!DOCTYPE svg PUBLIC "-//W3C//DTD SVG 1.1//EN" "http://www.w3.org/Graphics/SVG/1.1/DTD/svg11.dtd">
<svg 
 version="1.1" xmlns="http://www.w3.org/2000/svg" xmlns:xlink="http://www.w3.org/1999/xlink" x="0px" y="0px" width="512px"
	 height="512px" viewBox="0 0 512 512" style="enable-background:new 0 0 512 512;" xml:space="preserve"
><g id="afcae5a789ccd549f9c6e2a2f8179bae"><g></g><path style="display: inline; fill:#000000;" d="M465.89,91.756c0-40.324-32.685-73.005-73.005-73.005
		c-5.936,0-11.675,0.786-17.196,2.121C364.024,8.366,347.452,0.5,329.005,0.5c-27.63,0-51.093,17.572-59.999,42.126
		C252.79,17.3,224.427,0.5,192.121,0.5c-50.401,0-91.256,40.852-91.256,91.256c0,21.991,7.782,42.163,20.738,57.919h-18.364H84.196
		c0,0-38.085,0-38.085,38.085v171.391c0,0,0,38.086,38.085,38.086h38.049v76.174c0,21.043,17.075,38.089,38.085,38.089h247.561
		c21.054,0,38.086-17.046,38.086-38.089V340.109V141.762C458.29,128.69,465.89,111.129,465.89,91.756z M84.31,359.151
		c-0.018-0.307-0.093-0.549-0.114-0.819V187.911c0.299-0.075,0.56-0.114,0.802-0.15h18.241h19.007v152.349v19.042H84.31z
		 M407.892,321.103v114.22c0,21.046-17.032,38.089-38.089,38.089H198.419c-21.014,0-38.089-17.043-38.089-38.089v-38.085h0.039
		v-219.91c9.889,3.671,20.584,5.686,31.751,5.686c3.671,0,7.286-0.242,10.844-0.663v239.491h17.453V183.366
		c14.074,10.872,32.341,17.553,52.366,17.866v220.609h17.452V199.87c21.78-3.821,40.465-15.289,52.365-31.138v253.108h17.453
		v-261.82h-11.835c1.387-2.545,2.592-5.18,3.644-7.882c11.692,7.96,25.812,12.623,41.022,12.623c5.147,0,10.163-0.545,15.007-1.558
		v43.6V321.103z"></path></g></svg>