<?xml version="1.0" encoding="iso-8859-1"?>
<!DOCTYPE svg PUBLIC "-//W3C//DTD SVG 1.1//EN" "http://www.w3.org/Graphics/SVG/1.1/DTD/svg11.dtd">
<svg 
 version="1.1" xmlns="http://www.w3.org/2000/svg" xmlns:xlink="http://www.w3.org/1999/xlink" x="0px" y="0px" width="512px"
	 height="512px" viewBox="0 0 512 512" style="enable-background:new 0 0 512 512;" xml:space="preserve"
><g id="afcae5a789ccd549f9c6e2a2f8185ba2"><g></g><g fill="#000000"><path style="display: inline; fill-rule: evenodd; clip-rule: evenodd;" d="M102.791,122.992c-21,6.002-44.223,23.69-44.223,23.69
		s13.673-30.291,37.063-44.59c18.736-11.441,48.229-7.535,48.229-7.535V85.08c0,0,32.999-6.342,56.988-2.346
		c17.68,2.944,31.462,13.406,31.462,13.406l14.127-1.883c0.856-19.675-1.192-39.795-6.511-59.81
		c-0.228-0.853-0.358-1.706-0.413-2.554c2.509,0.141,5.049,0.236,7.648,0.236c6.487,0,12.693-0.462,18.5-1.279
		c5.403,21.533,7.509,43.146,6.628,64.304l7.4,0.986c0,0,13.782-10.461,31.461-13.406c23.989-3.997,56.988,2.346,56.988,2.346v9.477
		c0,0,29.492-3.906,48.229,7.535c23.391,14.299,37.063,44.59,37.063,44.59s-23.223-17.688-44.223-23.69
		c-17.343-4.958-33.171,1.579-33.171,1.579s17.488,17.071,26.435,30.835c11.31,17.393,3.579,29.179,3.579,29.179
		s-22.111-28.889-58.254-43.769c-30.504-12.562-64.95-8.347-64.95-8.347s-10.557,5.666-16.776,18.473
		C258.931,165.645,256,187.743,256,187.743s-2.931-22.098-10.071-36.801c-6.22-12.807-16.776-18.473-16.776-18.473
		s-34.446-4.215-64.95,8.347c-36.143,14.88-58.254,43.769-58.254,43.769s-7.73-11.786,3.58-29.179
		c8.946-13.764,26.435-30.835,26.435-30.835S120.134,118.034,102.791,122.992z M511.5,276.211
		c0,113.183-114.395,204.939-255.5,204.939S0.5,389.394,0.5,276.211c0-60.387,20.846-101.356,55.641-128.544l8.052,6.41
		c0.218-0.167,22.13-16.712,41.156-22.152c3.475-0.994,7.213-1.497,11.105-1.497c0.363,0,0.721,0,1.075,0.009
		c-5.367,5.961-11.455,13.229-15.792,19.907c-11.541,17.743-7.667,33.076-3.557,39.336l7.168,10.906l7.971-10.344
		c0.204-0.268,21.181-27.151,54.42-40.833c16.713-6.882,34.91-8.329,47.235-8.329c4.995,0,8.892,0.245,11.083,0.426
		c2.518,1.76,7.957,6.174,11.514,13.492c6.383,13.147,9.191,33.766,9.219,33.97l18.418-0.005c0.027-0.204,2.809-20.764,9.219-33.96
		c3.565-7.345,9.027-11.764,11.505-13.497c2.195-0.181,6.097-0.426,11.092-0.426c12.326,0,30.522,1.447,47.239,8.329
		c33.235,13.682,54.212,40.566,54.407,40.825l7.962,10.402l7.186-10.956c4.11-6.26,7.984-21.594-3.557-39.336
		c-4.337-6.678-10.425-13.945-15.792-19.907c0.354-0.009,0.713-0.009,1.075-0.009c3.893,0,7.631,0.503,11.11,1.497
		c19.021,5.439,40.934,21.984,41.151,22.152l8.053-6.41C490.654,174.854,511.5,215.824,511.5,276.211z M113.089,359.679
		c-29.551-24.007-43.91-55.292-53.509-43.469c-9.604,11.826,6.573,40.865,36.125,64.873c29.556,24.003,61.298,33.879,70.897,22.057
		C176.206,391.317,142.645,383.682,113.089,359.679z"></path></g></g></svg>